<svg width="38" height="31" viewBox="0 0 38 31" fill="none" xmlns="http://www.w3.org/2000/svg">
<path d="M2.33335 2.78333L4.46669 0.666667L32.3334 28.5333L30.2167 30.6667L25.0834 25.5333C23.1667 26.1667 21.1334 26.5 19 26.5C10.6667 26.5 3.55002 21.3167 0.666687 14C1.81669 11.0667 3.65002 8.48333 5.98335 6.43333L2.33335 2.78333ZM19 9C20.3261 9 21.5979 9.52678 22.5356 10.4645C23.4732 11.4021 24 12.6739 24 14C24.0009 14.5676 23.905 15.1312 23.7167 15.6667L17.3334 9.28333C17.8688 9.09497 18.4324 8.99916 19 9M19 1.5C27.3334 1.5 34.45 6.68333 37.3334 14C35.9731 17.4553 33.6616 20.4545 30.6667 22.65L28.3 20.2667C30.6048 18.6723 32.4637 16.5151 33.7 14C32.3526 11.2499 30.2607 8.93295 27.6621 7.31251C25.0635 5.69207 22.0625 4.83313 19 4.83333C17.1834 4.83333 15.4 5.13333 13.7334 5.66667L11.1667 3.11667C13.5667 2.08333 16.2167 1.5 19 1.5ZM4.30002 14C5.64742 16.7501 7.7393 19.0671 10.3379 20.6875C12.9365 22.3079 15.9376 23.1669 19 23.1667C20.15 23.1667 21.2834 23.05 22.3334 22.8167L18.5334 19C17.3736 18.8757 16.2914 18.3581 15.4666 17.5334C14.6419 16.7086 14.1243 15.6264 14 14.4667L8.33335 8.78333C6.68335 10.2 5.30002 11.9667 4.30002 14V14Z" fill="#656565"/>
</svg>
