<svg width="37" height="25" viewBox="0 0 37 25" fill="none" xmlns="http://www.w3.org/2000/svg">
<path d="M18.3333 3.33333C21.3979 3.32314 24.4031 4.17797 27.0035 5.79954C29.6039 7.42112 31.694 9.7436 33.0333 12.5C30.2833 18.1167 24.6667 21.6667 18.3333 21.6667C12 21.6667 6.38333 18.1167 3.63333 12.5C4.9727 9.7436 7.06272 7.42112 9.66313 5.79954C12.2635 4.17797 15.2688 3.32314 18.3333 3.33333M18.3333 0C10 0 2.88333 5.18333 0 12.5C2.88333 19.8167 10 25 18.3333 25C26.6667 25 33.7833 19.8167 36.6667 12.5C33.7833 5.18333 26.6667 0 18.3333 0ZM18.3333 8.33333C19.4384 8.33333 20.4982 8.77232 21.2796 9.55372C22.061 10.3351 22.5 11.3949 22.5 12.5C22.5 13.6051 22.061 14.6649 21.2796 15.4463C20.4982 16.2277 19.4384 16.6667 18.3333 16.6667C17.2283 16.6667 16.1685 16.2277 15.3871 15.4463C14.6057 14.6649 14.1667 13.6051 14.1667 12.5C14.1667 11.3949 14.6057 10.3351 15.3871 9.55372C16.1685 8.77232 17.2283 8.33333 18.3333 8.33333M18.3333 5C14.2 5 10.8333 8.36667 10.8333 12.5C10.8333 16.6333 14.2 20 18.3333 20C22.4667 20 25.8333 16.6333 25.8333 12.5C25.8333 8.36667 22.4667 5 18.3333 5Z" fill="#656565"/>
</svg>
