<svg width="24" height="24" viewBox="0 0 24 24" fill="none" xmlns="http://www.w3.org/2000/svg">
<path fill-rule="evenodd" clip-rule="evenodd" d="M5.25 3V8.25L6 9H11.25V7.5H7.4685L8.88 6.0885C9.37279 5.58507 9.96052 5.18436 10.6092 4.90957C11.2579 4.63477 11.9546 4.49135 12.659 4.48758C13.3635 4.48382 14.0617 4.6198 14.7133 4.88765C15.3648 5.1555 15.9568 5.54991 16.455 6.04804C16.9531 6.54618 17.3475 7.13816 17.6153 7.78972C17.8832 8.44129 18.0192 9.1395 18.0154 9.84396C18.0117 10.5484 17.8682 11.2451 17.5934 11.8938C17.3186 12.5425 16.9179 13.1302 16.4145 13.623L8.619 21.42L9.699 22.5L17.496 14.703C18.7816 13.4172 19.5037 11.6734 19.5036 9.85522C19.5034 8.03701 18.781 6.29332 17.4952 5.00775C16.2095 3.72218 14.4657 3.00003 12.6475 3.00017C10.8293 3.00031 9.08557 3.72273 7.8 5.0085L6.75 6.0585V3H5.25Z" fill="white"/>
</svg>
