<svg width="15" height="15" viewBox="0 0 15 15" fill="none" xmlns="http://www.w3.org/2000/svg">
<path d="M13.75 4.39296L10.607 1.24999C10.5031 1.14497 10.3793 1.0616 10.243 1.00471C10.1066 0.947813 9.96027 0.918518 9.8125 0.918518C9.66473 0.918518 9.51843 0.947813 9.38205 1.00471C9.24567 1.0616 9.12193 1.14497 9.01797 1.24999L0.580469 9.68749C0.475632 9.79153 0.392449 9.91531 0.335728 10.0517C0.279006 10.1881 0.249869 10.3343 0.25 10.482V13.625C0.25 13.9234 0.368527 14.2095 0.579505 14.4205C0.790484 14.6315 1.07663 14.75 1.375 14.75H4.51797C4.66567 14.7501 4.81193 14.721 4.9483 14.6643C5.08468 14.6075 5.20846 14.5244 5.3125 14.4195L13.75 5.98202C13.9587 5.77023 14.0757 5.48483 14.0757 5.18749C14.0757 4.89016 13.9587 4.60476 13.75 4.39296ZM4.51797 13.625H1.375V10.482L7.5625 4.29452L10.7055 7.43749L4.51797 13.625ZM11.5 6.64296L8.35703 3.49999L9.8125 2.04452L12.9555 5.18749L11.5 6.64296Z" fill="#2F89FC"/>
</svg>
